<svg xmlns="http://www.w3.org/2000/svg" viewBox="0 0 360 360" role="img" aria-label="NR1 Commercialisation SARL"><title>NR1 Commercialisation SARL</title><defs><radialGradient id="d" cx="50%" cy="40%" r="64%"><stop offset="0%" stop-color="#2A37A0"/><stop offset="100%" stop-color="#1A2270"/></radialGradient></defs><circle cx="180" cy="180" r="150" fill="url(#d)" stroke="#E4BA73" stroke-width="8"/><g fill="none" stroke="#E4BA73" stroke-width="3.0"><rect x="-18" y="-18" width="36" height="36" transform="translate(180 112)"/><rect x="-18" y="-18" width="36" height="36" transform="translate(180 112) rotate(45)"/></g><circle cx="180" cy="112" r="3.2" fill="#E4BA73"/><g fill="#E4BA73" transform="translate(68.92 244.00) scale(0.06600 -0.06600)"><path transform="translate(0.0 0)" d="M439 6Q439 4 437.0 2.0Q435 0 431 0H47Q43 0 41.0 2.0Q39 4 39 6Q39 10 49 13L119 33Q159 46 184.5 72.0Q210 98 210 148V1185Q210 1200 208.5 1207.0Q207 1214 196 1229L104 1377Q101 1384 97.0 1389.5Q93 1395 93 1397Q93 1399 95.0 1399.5Q97 1400 101 1400H365Q372 1400 376.0 1394.5Q380 1389 388 1376L1131 178L1118 153V1253Q1118 1303 1092.0 1329.5Q1066 1356 1025 1367L917 1387Q907 1391 907 1394Q907 1397 909.0 1398.5Q911 1400 915 1400H1299Q1303 1400 1305.0 1398.5Q1307 1397 1307 1394Q1307 1391 1297 1387L1227 1367Q1188 1356 1162.0 1329.5Q1136 1303 1136 1253V187Q1136 176 1140.0 166.5Q1144 157 1148 149L1218 39Q1228 24 1231.5 16.5Q1235 9 1235 5Q1235 3 1233.0 1.5Q1231 0 1224 0H975Q960 0 960 14Q960 20 958.0 27.5Q956 35 951 41L192 1248H228V147Q228 98 254.5 71.5Q281 45 319 33L429 13Q439 10 439 6Z"/><path transform="translate(1341.0 0)" d="M1201 914Q1201 813 1157.0 732.0Q1113 651 1032.5 598.5Q952 546 842 527Q823 524 802.5 521.5Q782 519 761.5 518.0Q741 517 719 517Q644 517 585.0 526.5Q526 536 480.0 555.5Q434 575 397 604L406 618Q441 590 481.5 573.5Q522 557 566.5 550.0Q611 543 657 543Q793 543 874.5 633.5Q956 724 956 906Q956 1044 903.0 1151.5Q850 1259 758.0 1320.5Q666 1382 548 1382H448V64Q448 46 457.0 38.0Q466 30 485 26L572 13Q578 13 580.5 11.5Q583 10 583 6Q583 0 574 0H79Q75 0 72.5 2.0Q70 4 70 6Q70 12 81 13L168 26Q188 30 196.5 38.0Q205 46 205 64V1347Q205 1359 196.0 1365.5Q187 1372 168 1374L81 1387Q70 1389 70 1394Q70 1397 72.5 1398.5Q75 1400 79 1400H547Q753 1400 899.5 1340.0Q1046 1280 1123.5 1170.5Q1201 1061 1201 914ZM676 533 902 559 1194 80Q1217 44 1243.0 32.0Q1269 20 1300 13Q1306 12 1308.5 11.0Q1311 10 1311 6Q1311 4 1309.0 2.0Q1307 0 1302 0H873Q864 0 864 6Q864 10 866.5 10.5Q869 11 875 13L922 21Q946 28 950.5 43.0Q955 58 938 88Z"/><path transform="translate(2640.0 0)" d="M73 1331 221 1328Q235 1328 242.5 1319.5Q250 1311 250 1292V92Q250 66 236.0 53.5Q222 41 199 36L65 17Q52 14 52 9Q52 5 55.5 2.5Q59 0 64 0H673Q679 0 682.0 2.0Q685 4 685 8Q685 12 673 15L538 36Q518 41 505.5 54.5Q493 68 493 93V1437Q493 1451 483 1451Q479 1451 475.5 1447.5Q472 1444 468 1437Q435 1384 379.0 1368.0Q323 1352 219 1351L73 1348Q68 1348 65.0 1345.5Q62 1343 62 1340Q62 1337 64.5 1334.0Q67 1331 73 1331Z"/></g></svg>